# Blender v2.74 (sub 0) OBJ File: ''
# www.blender.org
mtllib thing.mtl
o Icosphere
v -0.288923 -1.054536 0.414633
v 1.023989 -0.323111 1.017039
v -0.205890 0.327542 1.549066
v -0.466917 -0.557752 -0.055162
v -0.126251 -0.616262 -0.959958
v 0.727175 -0.850822 -0.239637
v 0.295898 1.221150 0.535937
v -0.715861 0.035232 0.571353
v -0.796343 0.848998 -0.529268
v 0.393839 -0.340316 -1.415806
v 1.383547 0.298351 -0.180134
v 0.130965 0.997904 -0.682565
v -0.616695 -0.511387 1.294282
v 0.281213 -0.940788 0.959607
v 0.100859 -0.055264 0.891927
v 0.827767 -0.810038 0.350501
v 0.480434 -1.227890 0.113894
v -0.485125 -1.192269 -0.055162
v -0.740638 -0.681248 0.731224
v -0.162456 -0.850654 -0.499995
v -0.740638 -0.681248 -0.841547
v 0.197489 -1.041979 -0.543814
v 1.147379 0.072252 0.361126
v 1.306111 -0.782572 -0.255645
v 0.275115 1.032271 1.390557
v 0.574275 0.424035 0.806379
v -1.154073 0.145619 0.430847
v -0.582725 0.145619 1.217244
v -0.587786 0.000000 -0.809017
v -1.154073 0.145619 -0.541171
v 0.670906 -0.868903 -0.808371
v 0.000000 0.000000 -1.000000
v 0.806946 0.743846 0.200224
v -0.262869 0.525738 0.809012
v -1.016970 0.851042 0.000000
v -0.262869 0.525738 -1.003874
v 0.866667 0.134022 -0.797740
v 0.682535 1.316202 0.027518
v 0.709997 0.782014 -0.515991
v -0.425323 0.766053 0.309011
v -0.425323 1.035507 -0.309011
v 0.320457 0.523973 -1.068711
vn -0.248600 -0.862800 0.440100
vn 0.579100 -0.730100 0.362900
vn -0.348800 -0.850000 0.394900
vn 0.678700 -0.731100 -0.069100
vn -0.303900 -0.920100 -0.247100
vn 0.939900 -0.340200 -0.028200
vn 0.736200 -0.376000 0.562700
vn -0.779400 -0.517800 -0.352600
vn -0.197700 0.091000 -0.976000
vn 0.341400 -0.939900 -0.003900
vn 0.696200 0.549300 0.462100
vn -0.680900 0.568600 0.461600
vn -0.715300 -0.698800 0.000000
vn -0.309000 0.001500 -0.951100
vn 0.117600 -0.992900 0.019900
vn 0.717000 0.339500 0.608800
vn -0.750600 0.466400 0.468000
vn -0.367700 0.916600 -0.156800
vn -0.101800 0.363300 -0.926100
vn 0.631500 0.432500 -0.643600
vn 0.424800 0.667800 -0.611200
vn 0.629200 0.432800 -0.645500
vn 0.601800 0.341100 -0.722200
vn -0.483600 0.428500 -0.763200
vn -0.064300 0.797400 -0.600000
vn -0.047200 0.800100 -0.598000
vn 0.313700 0.870400 0.379500
vn -0.076800 0.914000 0.398500
vn -0.365300 0.439800 0.820500
vn -0.453700 0.889900 -0.046500
vn -0.285200 0.824400 0.488900
vn -0.760100 0.414200 -0.500600
vn 0.424200 0.656500 -0.623800
vn 0.976800 0.175200 -0.122900
vn 0.595200 0.802700 -0.037800
vn 0.768200 -0.010300 -0.640200
vn 0.660900 -0.121200 -0.740600
vn 0.839100 -0.158300 -0.520500
vn -0.805900 -0.406100 -0.430900
vn -0.305100 -0.159400 -0.938900
vn -0.626500 0.100800 -0.772900
vn -0.832900 0.429500 -0.348900
vn -0.981600 0.190800 0.000000
vn -0.132600 0.535300 0.834200
vn -0.743500 0.667600 0.039100
vn -0.723800 0.686200 0.071900
vn -0.748700 0.650900 0.125700
vn 0.741300 0.432900 0.512900
vn 0.702600 0.481600 0.523800
vn 0.710600 0.482800 0.511800
vn -0.753400 -0.626100 -0.201200
vn -0.315400 -0.430100 -0.845900
vn 0.675100 -0.184700 -0.714200
vn -0.374700 0.205800 -0.904000
vn -0.395800 0.132200 -0.908800
vn -0.779400 -0.517800 0.352600
vn 0.304300 0.926600 -0.221100
vn -0.794700 -0.187600 0.577300
vn -0.512400 -0.360300 0.779500
vn 0.927900 0.358600 0.101800
vn 0.553900 -0.418700 0.719600
vn -0.063100 0.235500 0.969800
vn 0.926200 -0.091900 0.365700
vn 0.759300 -0.282100 0.586400
vn 0.118300 -0.991800 0.048400
vn 0.514900 -0.741000 -0.431000
vn -0.473200 -0.879800 -0.045100
vn -0.463900 -0.774000 -0.430900
vn 0.006800 -0.891200 -0.453600
vn 0.092300 -0.821000 -0.563500
vn -0.945400 0.027100 0.324800
vn -0.945400 0.027100 -0.324800
vn -0.504400 -0.789700 0.349300
vn -0.904200 0.420900 0.072100
vn 0.790900 -0.604800 -0.093000
vn 0.593700 -0.709000 0.380600
vn -0.096800 -0.949200 0.299400
vn 0.642400 -0.492800 0.586900
vn 0.408200 0.151900 0.900200
vn -0.119400 0.051500 0.991500
usemtl None
s off
f 1//1 14//1 13//1
f 2//2 14//2 16//2
f 1//3 13//3 18//3
f 1//4 18//4 20//4
f 1//5 20//5 17//5
f 2//6 16//6 23//6
f 3//7 15//7 25//7
f 4//8 19//8 27//8
f 5//9 21//9 29//9
f 6//10 22//10 31//10
f 2//11 23//11 26//11
f 3//12 25//12 28//12
f 4//13 27//13 30//13
f 5//14 29//14 32//14
f 6//15 31//15 24//15
f 7//16 33//16 38//16
f 8//17 34//17 40//17
f 9//18 35//18 41//18
f 10//19 36//19 42//19
f 11//20 37//20 39//20
f 39//21 42//21 12//21
f 39//22 37//22 42//22
f 37//23 10//23 42//23
f 42//24 41//24 12//24
f 42//25 36//25 41//25
f 36//26 9//26 41//26
f 41//27 40//27 12//27
f 41//28 35//28 40//28
f 35//29 8//29 40//29
f 40//30 38//30 12//30
f 40//31 34//31 38//31
f 34//32 7//32 38//32
f 38//33 39//33 12//33
f 38//34 33//34 39//34
f 33//35 11//35 39//35
f 24//36 37//36 11//36
f 24//37 31//37 37//37
f 31//38 10//38 37//38
f 32//39 36//39 10//39
f 32//40 29//40 36//40
f 29//41 9//41 36//41
f 30//42 35//42 9//42
f 30//43 27//43 35//43
f 27//44 8//44 35//44
f 28//45 34//45 8//45
f 28//46 25//46 34//46
f 25//47 7//47 34//47
f 26//48 33//48 7//48
f 26//49 23//49 33//49
f 23//50 11//50 33//50
f 31//51 32//51 10//51
f 31//52 22//52 32//52
f 22//53 5//53 32//53
f 29//54 30//54 9//54
f 29//55 21//55 30//55
f 21//56 4//56 30//56
f 27//57 28//57 8//57
f 27//58 19//58 28//58
f 19//59 3//59 28//59
f 25//60 26//60 7//60
f 25//61 15//61 26//61
f 15//62 2//62 26//62
f 23//63 24//63 11//63
f 23//64 16//64 24//64
f 16//65 6//65 24//65
f 17//66 22//66 6//66
f 17//67 20//67 22//67
f 20//68 5//68 22//68
f 20//69 21//69 5//69
f 20//70 18//70 21//70
f 18//71 4//71 21//71
f 18//72 19//72 4//72
f 18//73 13//73 19//73
f 13//74 3//74 19//74
f 16//75 17//75 6//75
f 16//76 14//76 17//76
f 14//77 1//77 17//77
f 13//78 15//78 3//78
f 13//79 14//79 15//79
f 14//80 2//80 15//80
